<?xml version="1.0"?>
<svg xmlns="http://www.w3.org/2000/svg" xmlns:xlink="http://www.w3.org/1999/xlink" xmlns:svgjs="http://svgjs.com/svgjs" version="1.1" width="512" height="512" x="0" y="0" viewBox="0 0 512 512" style="enable-background:new 0 0 512 512" xml:space="preserve" class=""><g><g xmlns="http://www.w3.org/2000/svg"><path d="m413.38 318.36c0 69.12-36.22 129.79-90.73 164.05-14.91 9.38-58.91 14.06-102.91 14.06-44 .01-88-4.68-102.91-14.05-54.51-34.26-90.73-94.93-90.73-164.06 0-106.95 86.69-193.64 193.64-193.64 106.94 0 193.64 86.69 193.64 193.64z" fill="#488b59" data-original="#48588b" style=""/><path d="m413.38 318.36c0 69.12-36.22 129.79-90.73 164.05-14.91 9.38-58.91 14.06-102.91 14.06v-371.75c106.94 0 193.64 86.69 193.64 193.64z" fill="#3c834a" data-original="#3c4a83" style="" class=""/><ellipse cx="219.74" cy="292.48" fill="#f9c4b9" rx="55.91" ry="55.91" transform="matrix(.23 -.973 .973 .23 -115.402 439.144)" data-original="#f9c4b9" style=""/><path d="m275.65 292.48c0 30.88-25.03 55.91-55.91 55.91v-111.82c30.88 0 55.91 25.04 55.91 55.91z" fill="#ffb19e" data-original="#ffb19e" style=""/><path d="m322.65 429.05v53.36c-29.81 18.75-65.09 29.59-102.91 29.59s-73.1-10.84-102.91-29.58v-53.37c0-44.55 36.11-80.66 80.65-80.66h44.52c44.54 0 80.65 36.11 80.65 80.66z" fill="#60e2f4" data-original="#60e2f4" style=""/><path d="m322.65 429.05v53.36c-29.81 18.75-65.09 29.59-102.91 29.59v-163.61h22.26c44.54 0 80.65 36.11 80.65 80.66z" fill="#29c5ec" data-original="#29c5ec" style=""/><path d="m457.912 62.94v33.79h-30v-33.79c0-18.16-14.78-32.94-32.94-32.94-18.17 0-32.94 14.78-32.94 32.94v33.79h-30v-33.79c0-34.7 28.23-62.94 62.94-62.94s62.94 28.24 62.94 62.94z" fill="#cddbf9" data-original="#cddbf9" style=""/><path d="m457.912 62.94v33.79h-30v-33.79c0-18.16-14.78-32.94-32.94-32.94v-30c34.71 0 62.94 28.24 62.94 62.94z" fill="#afc2e8" data-original="#afc2e8" style="" class=""/><path d="m304.03 81.73v167.44h75.94l15-10.75 15 10.75h75.93v-167.44z" fill="#fea000" data-original="#fea000" style="" class=""/><path d="m485.9 81.73v167.44h-75.93l-15-10.75v-156.69z" fill="#f78002" data-original="#f78002" style="" class=""/><path d="m379.972 150.45h30v98.72h-30z" fill="#fbe200" data-original="#fbe200" style=""/><path d="m394.972 150.45h15v98.72h-15z" fill="#febf01" data-original="#febf01" style=""/></g></g></svg>
